<?xml version="1.0" encoding="utf-8"?>
<!-- Generator: Adobe Illustrator 26.0.2, SVG Export Plug-In . SVG Version: 6.00 Build 0)  -->
<svg version="1.1" id="Layer_1" xmlns="http://www.w3.org/2000/svg" xmlns:xlink="http://www.w3.org/1999/xlink" x="0px" y="0px"
	 viewBox="0 0 158 223.4" style="enable-background:new 0 0 158 223.4;" xml:space="preserve">
<style type="text/css">
	.st0{fill:#26264C;}
	.st1{opacity:0.5;fill:url(#SVGID_1_);enable-background:new    ;}
	.st2{opacity:0.25;fill:#1D1D1B;enable-background:new    ;}
	.st3{clip-path:url(#SVGID_00000167380187945169202420000009305177636838883759_);}
	.st4{fill:#33CCFF;}
</style>
<g>
	<path class="st0" d="M127.9,154.6c-7.2,2.9-17,5.8-49,5.8c-31.9,0-41.6-2.9-48.8-5.8 M30,154.6c1-1.6,2.1-41.1,2.2-97.6
		c-0.8,0.3-1.5,0.5-2.2,0.8c-3.9,1.3-6.1,2.1-9.6,6l-0.1-0.1v0.2c-0.7,0-5.7-3.5-10.5-8.9C5.2,50,0,42.4,0,33.7h0.2l-0.1-0.1
		c3.6-3.3,6.7-6.5,9.7-9.7c6-6.3,11.8-12.2,19.3-16.4c8.4-4.7,18.3-6.9,31.2-6.9C60.6,0.2,61,0,61.4,0l0,0h0.1l0,0
		c3.1,0.1,6.2,0.3,9.2,0.6c2.8,0.3,5.5,0.6,8.1,0.6s5.2-0.3,7.9-0.5h0.2C90.1,0.3,93.2,0,96.3,0l0,0c0.5,0,0.9,0.2,1.2,0.6
		c12.9,0,22.8,2.2,31.2,6.9c7.6,4.2,13.3,10.2,19.4,16.5c3,3.1,6.1,6.4,9.7,9.6h0.1v0.1c0,8.6-5.2,16.3-9.6,21.2
		c-4.8,5.4-9.9,8.9-10.5,8.9h-0.1v-0.1c-3.6-3.9-5.7-4.6-9.6-6c-0.7-0.2-1.4-0.5-2.2-0.8c0,56.5,1.1,96,2.2,97.6"/>
	
		<linearGradient id="SVGID_1_" gradientUnits="userSpaceOnUse" x1="20.9728" y1="-395.3361" x2="41.0526" y2="-430.1154" gradientTransform="matrix(1 0 0 -1 0 -391.5251)">
		<stop  offset="0.1127" style="stop-color:#33CCFF"/>
		<stop  offset="0.9384" style="stop-color:#1B1464"/>
	</linearGradient>
	<path class="st1" d="M60.7,0.6C43,0.6,33.4,4.9,27,8.9V8.8c-6.8,3.5-15.5,12.9-22.6,20.5c-1.5,1.6-2.8,3.1-4.1,4.4
		c0,16.5,18.4,29.8,19.8,30.2c0.3-0.3,0.6-0.5,1-0.8s0.7-0.6,1.1-0.9c0.8-0.7,1.6-1.3,2.5-1.9c2.2-1.5,4.7-2.7,7.3-3.3
		c0,0.1,0,0.1,0.1,0.1c2.1-6.4,2.5-12.9,2.8-19.1c0.9-15.6,1.6-29.2,28.6-33C61,3.3,60.9,2.4,60.7,0.6z"/>
	<path class="st0" d="M78.9,160.9c-31.5,0-41.4-2.7-48.8-5.6c0,16.2-4.6,32.1-4.7,62.6c7.3,2.9,14.9,5.6,46.4,5.6
		c2.9,0,4.1-7.1,7.2-10.1c3.1,3.1,4.3,10.1,7.2,10.1c31.4,0,39-2.7,46.3-5.6c0-30.4-4.7-46.3-4.7-62.6
		C120.6,158.1,110.4,160.9,78.9,160.9z"/>
	<path class="st0" d="M157.8,78.2c-3.2-2.8-17-10.1-17.9-7.8c-7.8,29.6-1.7,62.2-6.2,70.9c-3.9,10.8,0,13.3,0,13.3
		c5.1,2.3,18.2,22.9,22.5,20c1-0.9,1.6-2.2,1.7-3.5c0.5-7.3-9.7-20.2-9.2-27.1C151.4,89,159.4,80,157.8,78.2z"/>
	<path class="st2" d="M78.9,14.1c-8.5,0-18.5-13.5-18.5-13.5C60.6,0.2,61,0,61.4,0l0,0h0.1l0,0c3.1,0.1,6.2,0.3,9.2,0.6
		c2.8,0.3,5.5,0.6,8.1,0.6s5.2-0.3,7.9-0.5h0.2C90.1,0.3,93.2,0,96.3,0l0,0c0.5,0,0.9,0.2,1.2,0.6C97.4,0.6,88.3,14.1,78.9,14.1"/>
	<g>
		<g>
			<g>
				<defs>
					<path id="SVGID_00000137828148070605941610000000682128182753337996_" d="M131.1,8.8c-6.4-4-16.3-8.2-34-8.2
						C96.8,2.4,89,13.7,78.9,15.8c26.9,3.9,43.2,6.6,44.1,22.3c0.4,6.3,1,12.6,3.1,19V57v0.1c2.6,0.6,5.1,1.7,7.3,3.3
						c0.9,0.5,1.7,1.2,2.5,1.9c0.4,0.3,0.7,0.6,1.1,0.9c0.3,0.3,0.6,0.5,1,0.8c1.3-0.4,19.7-13.8,19.8-30.2
						c-1.2-1.3-2.6-2.8-4.1-4.4C146.6,21.7,137.9,12.3,131.1,8.8"/>
				</defs>
				<clipPath id="SVGID_00000081609153644045661400000012642758831260811696_">
					<use xlink:href="#SVGID_00000137828148070605941610000000682128182753337996_"  style="overflow:visible;"/>
				</clipPath>
				<g style="clip-path:url(#SVGID_00000081609153644045661400000012642758831260811696_);">
					<rect x="115.7" y="0.1" class="st4" width="12.5" height="12.5"/>
					<polyline class="st4" points="103.5,0.1 103.5,12.5 91.1,12.5 					"/>
					<polyline class="st4" points="153.3,49.8 140.8,49.8 140.8,62.3 					"/>
					<polyline class="st4" points="128.3,62.3 128.3,49.8 115.9,49.8 					"/>
					<rect x="128.2" y="12.7" class="st4" width="12.5" height="12.5"/>
					<rect x="128.4" y="37.4" class="st4" width="12.5" height="12.5"/>
					<polyline class="st4" points="165.5,37.4 153.1,37.4 153.1,49.8 					"/>
					<rect x="103.2" y="12.4" class="st4" width="12.5" height="12.5"/>
					<path class="st4" d="M90.9,12.4h-7.6c-2.7,0-4.9,1.1-4.9,4.9h8.5"/>
					<rect x="140.6" y="24.9" class="st4" width="12.5" height="12.5"/>
					<rect x="115.7" y="24.9" class="st4" width="12.5" height="12.5"/>
				</g>
			</g>
		</g>
	</g>
</g>
</svg>
