<?xml version="1.0" encoding="utf-8"?>
<!-- Generator: Adobe Illustrator 26.0.2, SVG Export Plug-In . SVG Version: 6.00 Build 0)  -->
<svg version="1.1" id="Layer_1" xmlns="http://www.w3.org/2000/svg" xmlns:xlink="http://www.w3.org/1999/xlink" x="0px" y="0px"
	 viewBox="0 0 158 223.4" style="enable-background:new 0 0 158 223.4;" xml:space="preserve">
<style type="text/css">
	.st0{fill:#F6F6F6;}
	.st1{clip-path:url(#SVGID_00000163054276689712162280000000406644658032821677_);}
	.st2{opacity:0.5;}
	.st3{fill:none;stroke:#1D71B8;stroke-width:2;stroke-linecap:round;stroke-miterlimit:10;}
	.st4{fill:none;stroke:#BE1622;stroke-width:2;stroke-linecap:round;stroke-miterlimit:10;}
	.st5{fill:none;stroke:#D60B52;stroke-width:2;stroke-linecap:round;stroke-miterlimit:10;}
	.st6{opacity:0.25;}
	.st7{fill:#14152D;}
	.st8{clip-path:url(#SVGID_00000122693388941789641850000015558771290428648886_);}
	.st9{opacity:0.25;fill:url(#SVGID_00000018222644099887789190000003248557185072274056_);enable-background:new    ;}
	.st10{opacity:0.5;fill:#1D1D1B;enable-background:new    ;}
	.st11{fill:none;}
	.st12{fill:#29235C;}
</style>
<g>
	<path class="st0" d="M127.9,154.6c-7.2,2.9-17,5.8-49,5.8c-31.9,0-41.6-2.9-48.8-5.8 M30,154.6c1-1.6,2.1-41.1,2.2-97.6
		c-0.8,0.3-1.5,0.5-2.2,0.8c-3.9,1.3-6.1,2.1-9.6,6l-0.1-0.1l0,0.2c-0.7,0-5.7-3.5-10.5-8.9C5.2,50,0,42.4,0,33.7h0.2l-0.1-0.1
		c3.6-3.3,6.7-6.5,9.7-9.7c6-6.3,11.8-12.2,19.3-16.4c8.4-4.7,18.3-6.9,31.2-6.9C60.6,0.2,61,0,61.4,0v0l0.1,0h0
		c3.1,0.1,6.2,0.3,9.2,0.6c2.8,0.3,5.5,0.6,8.1,0.6c2.6,0,5.2-0.3,7.9-0.5l0.2,0C90.1,0.3,93.2,0,96.3,0l0,0h0
		c0.5,0,0.9,0.2,1.2,0.6c12.9,0,22.8,2.2,31.2,6.9c7.6,4.2,13.3,10.2,19.4,16.5c3,3.1,6.1,6.4,9.7,9.6l0.1,0v0.1
		c0,8.6-5.2,16.3-9.6,21.2c-4.8,5.4-9.9,8.9-10.5,8.9h-0.1l0-0.1c-3.6-3.9-5.7-4.6-9.6-6c-0.7-0.2-1.4-0.5-2.2-0.8
		c0,56.5,1.1,96,2.2,97.6"/>
	<g>
		<defs>
			<path id="SVGID_1_" d="M127.9,154.6c-7.2,2.9-17,5.8-49,5.8c-31.9,0-41.6-2.9-48.8-5.8 M30,154.6c1-1.6,2.1-41.1,2.2-97.6
				c-0.8,0.3-1.5,0.5-2.2,0.8c-3.9,1.3-6.1,2.1-9.6,6l-0.1-0.1l0,0.2c-0.7,0-5.7-3.5-10.5-8.9C5.2,50,0,42.4,0,33.7h0.2l-0.1-0.1
				c3.6-3.3,6.7-6.5,9.7-9.7c6-6.3,11.8-12.2,19.3-16.4c8.4-4.7,18.3-6.9,31.2-6.9C60.6,0.2,61,0,61.4,0v0l0.1,0h0
				c3.1,0.1,6.2,0.3,9.2,0.6c2.8,0.3,5.5,0.6,8.1,0.6c2.6,0,5.2-0.3,7.9-0.5l0.2,0C90.1,0.3,93.2,0,96.3,0l0,0h0
				c0.5,0,0.9,0.2,1.2,0.6c12.9,0,22.8,2.2,31.2,6.9c7.6,4.2,13.3,10.2,19.4,16.5c3,3.1,6.1,6.4,9.7,9.6l0.1,0v0.1
				c0,8.6-5.2,16.3-9.6,21.2c-4.8,5.4-9.9,8.9-10.5,8.9h-0.1l0-0.1c-3.6-3.9-5.7-4.6-9.6-6c-0.7-0.2-1.4-0.5-2.2-0.8
				c0,56.5,1.1,96,2.2,97.6"/>
		</defs>
		<clipPath id="SVGID_00000080887047040421439890000005732911785532447649_">
			<use xlink:href="#SVGID_1_"  style="overflow:visible;"/>
		</clipPath>
		<g style="clip-path:url(#SVGID_00000080887047040421439890000005732911785532447649_);">
			<g class="st2">
				<line class="st3" x1="111" y1="15.9" x2="120.5" y2="4.5"/>
				<line class="st3" x1="110.5" y1="14.7" x2="119.5" y2="3.9"/>
				<line class="st3" x1="110" y1="13.5" x2="118.5" y2="3.3"/>
				<line class="st3" x1="109.5" y1="12.3" x2="117.5" y2="2.7"/>
				<line class="st3" x1="109" y1="11.1" x2="116.5" y2="2"/>
				<line class="st3" x1="108.5" y1="9.9" x2="115.6" y2="1.4"/>
				<line class="st3" x1="108" y1="8.7" x2="114.6" y2="0.8"/>
				<line class="st3" x1="107.6" y1="7.4" x2="113.6" y2="0.2"/>
				<line class="st3" x1="107.1" y1="6.2" x2="112.6" y2="-0.4"/>
				<line class="st3" x1="106.6" y1="5" x2="111.6" y2="-1"/>
				<line class="st3" x1="106.1" y1="3.8" x2="110.6" y2="-1.6"/>
				<line class="st3" x1="105.6" y1="2.6" x2="109.6" y2="-2.2"/>
				<line class="st3" x1="105.1" y1="1.4" x2="108.6" y2="-2.8"/>
				<line class="st3" x1="104.6" y1="0.2" x2="107.6" y2="-3.4"/>
			</g>
			<g class="st2">
				<line class="st4" x1="112.6" y1="14.1" x2="120.5" y2="4.5"/>
				<line class="st4" x1="112.2" y1="12.7" x2="119.5" y2="3.8"/>
				<line class="st4" x1="111.8" y1="11.4" x2="118.5" y2="3.2"/>
				<line class="st4" x1="111.4" y1="10" x2="117.5" y2="2.6"/>
				<line class="st4" x1="111.1" y1="8.7" x2="116.5" y2="2"/>
				<line class="st4" x1="110.7" y1="7.3" x2="115.5" y2="1.4"/>
				<line class="st4" x1="110.3" y1="6" x2="114.6" y2="0.8"/>
				<line class="st4" x1="109.9" y1="4.6" x2="113.6" y2="0.2"/>
				<line class="st4" x1="109.5" y1="3.3" x2="112.6" y2="-0.4"/>
				<line class="st4" x1="109.2" y1="2" x2="111.6" y2="-1"/>
				<line class="st4" x1="108.8" y1="0.6" x2="110.6" y2="-1.6"/>
			</g>
			<g class="st2">
				<line class="st5" x1="119" y1="2.6" x2="125.2" y2="-4.9"/>
				<line class="st5" x1="118.1" y1="2.1" x2="123.9" y2="-4.9"/>
				<line class="st5" x1="117.2" y1="1.5" x2="122.5" y2="-4.9"/>
				<line class="st5" x1="116.3" y1="1" x2="121.1" y2="-4.9"/>
				<line class="st5" x1="115.4" y1="0.4" x2="119.8" y2="-4.9"/>
				<line class="st5" x1="114.5" y1="-0.1" x2="118.4" y2="-4.9"/>
			</g>
			<g class="st6">
				<line class="st4" x1="117.6" y1="17" x2="125.5" y2="7.4"/>
				<line class="st4" x1="117.2" y1="15.7" x2="124.5" y2="6.8"/>
				<line class="st4" x1="116.8" y1="14.3" x2="123.5" y2="6.2"/>
				<line class="st4" x1="116.5" y1="13" x2="122.5" y2="5.6"/>
				<line class="st4" x1="116.1" y1="11.6" x2="121.6" y2="5"/>
				<line class="st4" x1="115.7" y1="10.3" x2="120.6" y2="4.4"/>
				<line class="st4" x1="115.3" y1="9" x2="119.6" y2="3.8"/>
				<line class="st4" x1="114.9" y1="7.6" x2="118.6" y2="3.2"/>
				<line class="st4" x1="114.6" y1="6.3" x2="117.6" y2="2.6"/>
				<line class="st4" x1="114.2" y1="4.9" x2="116.6" y2="2"/>
				<line class="st4" x1="113.8" y1="3.6" x2="115.6" y2="1.4"/>
				<line class="st4" x1="113.4" y1="2.2" x2="114.6" y2="0.8"/>
				<line class="st4" x1="113" y1="0.9" x2="113.6" y2="0.1"/>
			</g>
			<g class="st6">
				<line class="st3" x1="114.2" y1="28" x2="129.6" y2="9.7"/>
				<line class="st3" x1="115" y1="25.3" x2="128.6" y2="9.1"/>
				<line class="st3" x1="115.9" y1="22.5" x2="127.6" y2="8.6"/>
				<line class="st3" x1="116.7" y1="19.8" x2="126.5" y2="8"/>
				<line class="st3" x1="117.6" y1="17" x2="125.5" y2="7.4"/>
			</g>
			<g class="st2">
				<line class="st4" x1="109.2" y1="25.1" x2="124.6" y2="6.7"/>
				<line class="st4" x1="110" y1="22.3" x2="123.6" y2="6.2"/>
				<line class="st4" x1="110.9" y1="19.6" x2="122.5" y2="5.6"/>
				<line class="st4" x1="111.7" y1="16.8" x2="121.5" y2="5"/>
				<line class="st4" x1="112.6" y1="14.1" x2="120.5" y2="4.5"/>
			</g>
			<g class="st2">
				<line class="st3" x1="33.5" y1="0.4" x2="34.8" y2="15.2"/>
				<line class="st3" x1="34.7" y1="0.9" x2="35.9" y2="15"/>
				<line class="st3" x1="35.9" y1="1.4" x2="37.1" y2="14.7"/>
				<line class="st3" x1="37.1" y1="1.9" x2="38.2" y2="14.4"/>
				<line class="st3" x1="38.3" y1="2.4" x2="39.3" y2="14.2"/>
				<line class="st3" x1="39.5" y1="3" x2="40.5" y2="13.9"/>
				<line class="st3" x1="40.7" y1="3.5" x2="41.6" y2="13.6"/>
				<line class="st3" x1="41.9" y1="4" x2="42.7" y2="13.3"/>
				<line class="st3" x1="43.1" y1="4.5" x2="43.9" y2="13.1"/>
				<line class="st3" x1="44.3" y1="5" x2="45" y2="12.8"/>
				<line class="st3" x1="45.5" y1="5.5" x2="46.1" y2="12.5"/>
				<line class="st3" x1="46.7" y1="6" x2="47.2" y2="12.3"/>
				<line class="st3" x1="47.9" y1="6.5" x2="48.4" y2="12"/>
				<line class="st3" x1="49.1" y1="7.1" x2="49.5" y2="11.7"/>
				<line class="st3" x1="50.3" y1="7.6" x2="50.6" y2="11.5"/>
				<line class="st3" x1="51.5" y1="8.1" x2="51.8" y2="11.2"/>
				<line class="st3" x1="52.7" y1="8.6" x2="52.9" y2="10.9"/>
				<line class="st3" x1="53.9" y1="9.1" x2="54" y2="10.7"/>
				<line class="st3" x1="55.1" y1="9.6" x2="55.2" y2="10.4"/>
				<line class="st3" x1="56.3" y1="10.1" x2="56.3" y2="10.1"/>
			</g>
			<g class="st2">
				<line class="st4" x1="33.6" y1="2.9" x2="34.8" y2="15.2"/>
				<line class="st4" x1="34.9" y1="3.5" x2="36" y2="15"/>
				<line class="st4" x1="36.1" y1="4.2" x2="37.1" y2="14.7"/>
				<line class="st4" x1="37.3" y1="4.9" x2="38.2" y2="14.4"/>
				<line class="st4" x1="38.5" y1="5.6" x2="39.3" y2="14.2"/>
				<line class="st4" x1="39.7" y1="6.3" x2="40.5" y2="13.9"/>
				<line class="st4" x1="41" y1="6.9" x2="41.6" y2="13.6"/>
				<line class="st4" x1="42.2" y1="7.6" x2="42.7" y2="13.3"/>
				<line class="st4" x1="43.4" y1="8.3" x2="43.9" y2="13.1"/>
				<line class="st4" x1="44.6" y1="9" x2="45" y2="12.8"/>
				<line class="st4" x1="45.8" y1="9.7" x2="46.1" y2="12.5"/>
				<line class="st4" x1="47.1" y1="10.4" x2="47.2" y2="12.3"/>
				<line class="st4" x1="48.3" y1="11" x2="48.4" y2="12"/>
				<line class="st4" x1="49.5" y1="11.7" x2="49.5" y2="11.7"/>
			</g>
			<g class="st2">
				<line class="st5" x1="37.2" y1="15.5" x2="38.1" y2="25.2"/>
				<line class="st5" x1="38.2" y1="15.2" x2="39.1" y2="24.2"/>
				<line class="st5" x1="39.2" y1="15" x2="40" y2="23.3"/>
				<line class="st5" x1="40.2" y1="14.7" x2="41" y2="22.3"/>
				<line class="st5" x1="41.3" y1="14.5" x2="41.9" y2="21.3"/>
				<line class="st5" x1="42.3" y1="14.3" x2="42.9" y2="20.4"/>
				<line class="st5" x1="43.3" y1="14" x2="43.8" y2="19.4"/>
				<line class="st5" x1="44.3" y1="13.8" x2="44.8" y2="18.4"/>
				<line class="st5" x1="45.4" y1="13.5" x2="45.8" y2="17.4"/>
				<line class="st5" x1="46.4" y1="13.3" x2="46.7" y2="16.5"/>
				<line class="st5" x1="47.4" y1="13.1" x2="47.7" y2="15.5"/>
				<line class="st5" x1="48.4" y1="12.8" x2="48.6" y2="14.5"/>
				<line class="st5" x1="49.5" y1="12.6" x2="49.6" y2="13.5"/>
				<line class="st5" x1="50.5" y1="12.3" x2="50.5" y2="12.6"/>
			</g>
			<g class="st2">
				<line class="st3" x1="43.4" y1="14.1" x2="44.3" y2="23.8"/>
				<line class="st3" x1="44.4" y1="13.8" x2="45.3" y2="22.8"/>
				<line class="st3" x1="45.4" y1="13.6" x2="46.2" y2="21.9"/>
				<line class="st3" x1="46.4" y1="13.3" x2="47.2" y2="20.9"/>
				<line class="st3" x1="47.5" y1="13.1" x2="48.1" y2="19.9"/>
				<line class="st3" x1="48.5" y1="12.9" x2="49.1" y2="19"/>
				<line class="st3" x1="49.5" y1="12.6" x2="50" y2="18"/>
				<line class="st3" x1="50.5" y1="12.4" x2="51" y2="17"/>
				<line class="st3" x1="51.6" y1="12.1" x2="52" y2="16"/>
				<line class="st3" x1="52.6" y1="11.9" x2="52.9" y2="15.1"/>
				<line class="st3" x1="53.6" y1="11.7" x2="53.9" y2="14.1"/>
				<line class="st3" x1="54.6" y1="11.4" x2="54.8" y2="13.1"/>
				<line class="st3" x1="55.7" y1="11.2" x2="55.8" y2="12.1"/>
				<line class="st3" x1="56.7" y1="10.9" x2="56.7" y2="11.2"/>
			</g>
			<g class="st6">
				<line class="st4" x1="28" y1="4.3" x2="29.2" y2="16.7"/>
				<line class="st4" x1="29.2" y1="5" x2="30.3" y2="16.4"/>
				<line class="st4" x1="30.4" y1="5.7" x2="31.4" y2="16.1"/>
				<line class="st4" x1="31.7" y1="6.3" x2="32.6" y2="15.9"/>
				<line class="st4" x1="32.9" y1="7" x2="33.7" y2="15.6"/>
				<line class="st4" x1="34.1" y1="7.7" x2="34.8" y2="15.3"/>
				<line class="st4" x1="35.3" y1="8.4" x2="36" y2="15.1"/>
				<line class="st4" x1="36.5" y1="9.1" x2="37.1" y2="14.8"/>
				<line class="st4" x1="37.8" y1="9.8" x2="38.2" y2="14.5"/>
				<line class="st4" x1="39" y1="10.4" x2="39.3" y2="14.3"/>
				<line class="st4" x1="40.2" y1="11.1" x2="40.5" y2="14"/>
				<line class="st4" x1="41.4" y1="11.8" x2="41.6" y2="13.7"/>
				<line class="st4" x1="42.6" y1="12.5" x2="42.7" y2="13.4"/>
				<line class="st4" x1="43.8" y1="13.2" x2="43.8" y2="13.2"/>
			</g>
			<g class="st6">
				<line class="st3" x1="22.6" y1="-5.9" x2="24.7" y2="18"/>
				<line class="st3" x1="24" y1="-3.3" x2="25.8" y2="17.6"/>
				<line class="st3" x1="25.3" y1="-0.8" x2="26.9" y2="17.3"/>
				<line class="st3" x1="26.6" y1="1.8" x2="28.1" y2="17"/>
				<line class="st3" x1="28" y1="4.3" x2="29.2" y2="16.7"/>
			</g>
			<g class="st2">
				<line class="st4" x1="28.2" y1="-7.3" x2="30.3" y2="16.5"/>
				<line class="st4" x1="29.6" y1="-4.8" x2="31.4" y2="16.2"/>
				<line class="st4" x1="30.9" y1="-2.2" x2="32.6" y2="15.9"/>
				<line class="st4" x1="32.3" y1="0.3" x2="33.7" y2="15.6"/>
				<line class="st4" x1="33.6" y1="2.9" x2="34.8" y2="15.2"/>
			</g>
			<g class="st2">
				<line class="st3" x1="37.9" y1="50" x2="28.4" y2="61.5"/>
			</g>
			<g class="st2">
				<line class="st4" x1="36.3" y1="51.9" x2="28.4" y2="61.5"/>
			</g>
			<g class="st2">
				<line class="st5" x1="29.9" y1="63.3" x2="23.7" y2="70.9"/>
			</g>
			<g class="st2">
				<line class="st3" x1="35.3" y1="66.7" x2="29" y2="74.3"/>
			</g>
			<g class="st6">
				<line class="st4" x1="31.3" y1="48.9" x2="23.4" y2="58.5"/>
				<line class="st4" x1="31.7" y1="50.3" x2="24.4" y2="59.1"/>
				<line class="st4" x1="32.1" y1="51.6" x2="25.4" y2="59.7"/>
				<line class="st4" x1="32.4" y1="53" x2="26.4" y2="60.4"/>
				<line class="st4" x1="32.8" y1="54.3" x2="27.4" y2="61"/>
				<line class="st4" x1="33.2" y1="55.7" x2="28.3" y2="61.6"/>
				<line class="st4" x1="33.6" y1="57" x2="29.3" y2="62.2"/>
				<line class="st4" x1="34" y1="58.3" x2="30.3" y2="62.8"/>
				<line class="st4" x1="34.3" y1="59.7" x2="31.3" y2="63.4"/>
				<line class="st4" x1="34.7" y1="61" x2="32.3" y2="64"/>
				<line class="st4" x1="35.1" y1="62.4" x2="33.3" y2="64.6"/>
				<line class="st4" x1="35.5" y1="63.7" x2="34.3" y2="65.2"/>
				<line class="st4" x1="35.9" y1="65.1" x2="35.3" y2="65.8"/>
				<line class="st4" x1="36.2" y1="66.4" x2="36.2" y2="66.4"/>
			</g>
			<g class="st6">
				<line class="st3" x1="34.7" y1="37.9" x2="19.3" y2="56.2"/>
				<line class="st3" x1="33.9" y1="40.7" x2="20.3" y2="56.8"/>
				<line class="st3" x1="33" y1="43.4" x2="21.3" y2="57.4"/>
				<line class="st3" x1="32.2" y1="46.2" x2="22.4" y2="58"/>
				<line class="st3" x1="31.3" y1="48.9" x2="23.4" y2="58.5"/>
			</g>
			<g class="st2">
				<line class="st4" x1="39.7" y1="40.9" x2="24.3" y2="59.2"/>
				<line class="st4" x1="38.9" y1="43.6" x2="25.3" y2="59.8"/>
				<line class="st4" x1="38" y1="46.4" x2="26.4" y2="60.4"/>
				<line class="st4" x1="37.2" y1="49.1" x2="27.4" y2="60.9"/>
				<line class="st4" x1="36.3" y1="51.9" x2="28.4" y2="61.5"/>
			</g>
			<g class="st2">
				<line class="st3" x1="130.1" y1="56.4" x2="120.5" y2="67.9"/>
				<line class="st3" x1="130.6" y1="57.6" x2="121.5" y2="68.5"/>
				<line class="st3" x1="131.1" y1="58.8" x2="122.5" y2="69.1"/>
				<line class="st3" x1="131.5" y1="60.1" x2="123.5" y2="69.7"/>
				<line class="st3" x1="132" y1="61.3" x2="124.5" y2="70.3"/>
				<line class="st3" x1="132.5" y1="62.5" x2="125.5" y2="70.9"/>
				<line class="st3" x1="133" y1="63.7" x2="126.5" y2="71.5"/>
				<line class="st3" x1="133.5" y1="64.9" x2="127.5" y2="72.1"/>
				<line class="st3" x1="134" y1="66.1" x2="128.5" y2="72.7"/>
				<line class="st3" x1="134.5" y1="67.3" x2="129.4" y2="73.4"/>
				<line class="st3" x1="135" y1="68.5" x2="130.4" y2="74"/>
				<line class="st3" x1="135.4" y1="69.8" x2="131.4" y2="74.6"/>
				<line class="st3" x1="135.9" y1="71" x2="132.4" y2="75.2"/>
				<line class="st3" x1="136.4" y1="72.2" x2="133.4" y2="75.8"/>
				<line class="st3" x1="136.9" y1="73.4" x2="134.4" y2="76.4"/>
				<line class="st3" x1="137.4" y1="74.6" x2="135.4" y2="77"/>
				<line class="st3" x1="137.9" y1="75.8" x2="136.4" y2="77.6"/>
				<line class="st3" x1="138.4" y1="77" x2="137.4" y2="78.2"/>
				<line class="st3" x1="138.8" y1="78.2" x2="138.3" y2="78.8"/>
				<line class="st3" x1="139.3" y1="79.4" x2="139.3" y2="79.4"/>
			</g>
			<g class="st2">
				<line class="st4" x1="128.5" y1="58.3" x2="120.6" y2="67.9"/>
				<line class="st4" x1="128.8" y1="59.6" x2="121.5" y2="68.5"/>
				<line class="st4" x1="129.2" y1="61" x2="122.5" y2="69.1"/>
				<line class="st4" x1="129.6" y1="62.3" x2="123.5" y2="69.7"/>
				<line class="st4" x1="130" y1="63.7" x2="124.5" y2="70.3"/>
				<line class="st4" x1="130.4" y1="65" x2="125.5" y2="70.9"/>
				<line class="st4" x1="130.7" y1="66.4" x2="126.5" y2="71.5"/>
				<line class="st4" x1="131.1" y1="67.7" x2="127.5" y2="72.1"/>
				<line class="st4" x1="131.5" y1="69.1" x2="128.5" y2="72.7"/>
				<line class="st4" x1="131.9" y1="70.4" x2="129.4" y2="73.4"/>
				<line class="st4" x1="132.3" y1="71.7" x2="130.4" y2="74"/>
				<line class="st4" x1="132.6" y1="73.1" x2="131.4" y2="74.6"/>
				<line class="st4" x1="133" y1="74.4" x2="132.4" y2="75.2"/>
				<line class="st4" x1="133.4" y1="75.8" x2="133.4" y2="75.8"/>
			</g>
			<g class="st2">
				<line class="st5" x1="133.7" y1="76.9" x2="133.5" y2="77.1"/>
			</g>
			<g class="st2">
				<line class="st3" x1="139.1" y1="80.3" x2="138.9" y2="80.5"/>
			</g>
			<g class="st6">
				<line class="st4" x1="123.5" y1="55.3" x2="115.5" y2="64.9"/>
				<line class="st4" x1="123.8" y1="56.7" x2="116.5" y2="65.5"/>
				<line class="st4" x1="124.2" y1="58" x2="117.5" y2="66.1"/>
				<line class="st4" x1="124.6" y1="59.4" x2="118.5" y2="66.7"/>
				<line class="st4" x1="125" y1="60.7" x2="119.5" y2="67.4"/>
				<line class="st4" x1="125.3" y1="62" x2="120.5" y2="68"/>
				<line class="st4" x1="125.7" y1="63.4" x2="121.5" y2="68.6"/>
				<line class="st4" x1="126.1" y1="64.7" x2="122.5" y2="69.2"/>
				<line class="st4" x1="126.5" y1="66.1" x2="123.4" y2="69.8"/>
				<line class="st4" x1="126.9" y1="67.4" x2="124.4" y2="70.4"/>
				<line class="st4" x1="127.2" y1="68.8" x2="125.4" y2="71"/>
				<line class="st4" x1="127.6" y1="70.1" x2="126.4" y2="71.6"/>
				<line class="st4" x1="128" y1="71.5" x2="127.4" y2="72.2"/>
				<line class="st4" x1="128.4" y1="72.8" x2="128.4" y2="72.8"/>
			</g>
			<g class="st6">
				<line class="st3" x1="126.8" y1="44.3" x2="111.4" y2="62.6"/>
				<line class="st3" x1="126" y1="47.1" x2="112.5" y2="63.2"/>
				<line class="st3" x1="125.1" y1="49.8" x2="113.5" y2="63.8"/>
				<line class="st3" x1="124.3" y1="52.6" x2="114.5" y2="64.4"/>
				<line class="st3" x1="123.5" y1="55.3" x2="115.5" y2="64.9"/>
			</g>
			<g class="st2">
				<line class="st4" x1="131.9" y1="47.3" x2="116.5" y2="65.6"/>
				<line class="st4" x1="131" y1="50" x2="117.5" y2="66.2"/>
				<line class="st4" x1="130.2" y1="52.8" x2="118.5" y2="66.8"/>
				<line class="st4" x1="129.3" y1="55.5" x2="119.5" y2="67.3"/>
				<line class="st4" x1="128.5" y1="58.3" x2="120.6" y2="67.9"/>
			</g>
			<g class="st2">
				<line class="st3" x1="151.5" y1="20.2" x2="136.6" y2="21.6"/>
				<line class="st3" x1="150.9" y1="21.4" x2="136.9" y2="22.7"/>
				<line class="st3" x1="150.4" y1="22.6" x2="137.2" y2="23.9"/>
				<line class="st3" x1="149.9" y1="23.8" x2="137.4" y2="25"/>
				<line class="st3" x1="149.4" y1="25.1" x2="137.7" y2="26.1"/>
				<line class="st3" x1="148.9" y1="26.3" x2="138" y2="27.2"/>
				<line class="st3" x1="148.4" y1="27.5" x2="138.2" y2="28.4"/>
				<line class="st3" x1="147.9" y1="28.7" x2="138.5" y2="29.5"/>
				<line class="st3" x1="147.4" y1="29.9" x2="138.8" y2="30.6"/>
				<line class="st3" x1="146.8" y1="31.1" x2="139" y2="31.8"/>
				<line class="st3" x1="146.3" y1="32.3" x2="139.3" y2="32.9"/>
				<line class="st3" x1="145.8" y1="33.5" x2="139.6" y2="34"/>
				<line class="st3" x1="145.3" y1="34.7" x2="139.8" y2="35.2"/>
				<line class="st3" x1="144.8" y1="35.9" x2="140.1" y2="36.3"/>
				<line class="st3" x1="144.3" y1="37.1" x2="140.4" y2="37.4"/>
				<line class="st3" x1="143.8" y1="38.3" x2="140.6" y2="38.5"/>
				<line class="st3" x1="143.3" y1="39.5" x2="140.9" y2="39.7"/>
				<line class="st3" x1="142.7" y1="40.7" x2="141.2" y2="40.8"/>
				<line class="st3" x1="142.2" y1="41.9" x2="141.5" y2="41.9"/>
				<line class="st3" x1="141.7" y1="43.1" x2="141.7" y2="43.1"/>
			</g>
			<g class="st2">
				<line class="st4" x1="149" y1="20.4" x2="136.6" y2="21.6"/>
				<line class="st4" x1="148.3" y1="21.6" x2="136.9" y2="22.7"/>
				<line class="st4" x1="147.6" y1="22.9" x2="137.1" y2="23.9"/>
				<line class="st4" x1="146.9" y1="24.1" x2="137.4" y2="25"/>
				<line class="st4" x1="146.3" y1="25.3" x2="137.7" y2="26.1"/>
				<line class="st4" x1="145.6" y1="26.5" x2="138" y2="27.3"/>
				<line class="st4" x1="144.9" y1="27.7" x2="138.2" y2="28.4"/>
				<line class="st4" x1="144.2" y1="29" x2="138.5" y2="29.5"/>
				<line class="st4" x1="143.5" y1="30.2" x2="138.8" y2="30.6"/>
				<line class="st4" x1="142.9" y1="31.4" x2="139" y2="31.8"/>
				<line class="st4" x1="142.2" y1="32.6" x2="139.3" y2="32.9"/>
				<line class="st4" x1="141.5" y1="33.8" x2="139.6" y2="34"/>
				<line class="st4" x1="140.8" y1="35.1" x2="139.9" y2="35.2"/>
				<line class="st4" x1="140.1" y1="36.3" x2="140.1" y2="36.3"/>
			</g>
			<g class="st2">
				<line class="st5" x1="136.4" y1="23.9" x2="126.6" y2="24.9"/>
				<line class="st5" x1="136.6" y1="25" x2="127.6" y2="25.8"/>
				<line class="st5" x1="136.9" y1="26" x2="128.6" y2="26.8"/>
				<line class="st5" x1="137.1" y1="27" x2="129.6" y2="27.8"/>
				<line class="st5" x1="137.3" y1="28" x2="130.5" y2="28.7"/>
				<line class="st5" x1="137.6" y1="29.1" x2="131.5" y2="29.7"/>
				<line class="st5" x1="137.8" y1="30.1" x2="132.5" y2="30.6"/>
				<line class="st5" x1="138.1" y1="31.1" x2="133.4" y2="31.6"/>
				<line class="st5" x1="138.3" y1="32.1" x2="134.4" y2="32.5"/>
				<line class="st5" x1="138.6" y1="33.2" x2="135.4" y2="33.5"/>
				<line class="st5" x1="138.8" y1="34.2" x2="136.4" y2="34.5"/>
				<line class="st5" x1="139" y1="35.2" x2="137.3" y2="35.4"/>
				<line class="st5" x1="139.3" y1="36.3" x2="138.3" y2="36.4"/>
				<line class="st5" x1="139.5" y1="37.3" x2="139.3" y2="37.3"/>
			</g>
			<g class="st2">
				<line class="st3" x1="137.8" y1="30.1" x2="128" y2="31.1"/>
				<line class="st3" x1="138" y1="31.2" x2="129" y2="32"/>
				<line class="st3" x1="138.3" y1="32.2" x2="130" y2="33"/>
				<line class="st3" x1="138.5" y1="33.2" x2="131" y2="34"/>
				<line class="st3" x1="138.7" y1="34.2" x2="131.9" y2="34.9"/>
				<line class="st3" x1="139" y1="35.3" x2="132.9" y2="35.9"/>
				<line class="st3" x1="139.2" y1="36.3" x2="133.9" y2="36.8"/>
				<line class="st3" x1="139.5" y1="37.3" x2="134.8" y2="37.8"/>
				<line class="st3" x1="139.7" y1="38.3" x2="135.8" y2="38.7"/>
				<line class="st3" x1="140" y1="39.4" x2="136.8" y2="39.7"/>
				<line class="st3" x1="140.2" y1="40.4" x2="137.8" y2="40.6"/>
				<line class="st3" x1="140.4" y1="41.4" x2="138.7" y2="41.6"/>
				<line class="st3" x1="140.7" y1="42.4" x2="139.7" y2="42.6"/>
				<line class="st3" x1="140.9" y1="43.5" x2="140.7" y2="43.5"/>
			</g>
			<g class="st6">
				<line class="st4" x1="147.5" y1="14.8" x2="135.2" y2="16"/>
				<line class="st4" x1="146.9" y1="16" x2="135.4" y2="17.1"/>
				<line class="st4" x1="146.2" y1="17.2" x2="135.7" y2="18.2"/>
				<line class="st4" x1="145.5" y1="18.4" x2="136" y2="19.4"/>
				<line class="st4" x1="144.8" y1="19.7" x2="136.2" y2="20.5"/>
				<line class="st4" x1="144.1" y1="20.9" x2="136.5" y2="21.6"/>
				<line class="st4" x1="143.5" y1="22.1" x2="136.8" y2="22.7"/>
				<line class="st4" x1="142.8" y1="23.3" x2="137.1" y2="23.9"/>
				<line class="st4" x1="142.1" y1="24.5" x2="137.3" y2="25"/>
				<line class="st4" x1="141.4" y1="25.8" x2="137.6" y2="26.1"/>
				<line class="st4" x1="140.7" y1="27" x2="137.9" y2="27.3"/>
				<line class="st4" x1="140" y1="28.2" x2="138.1" y2="28.4"/>
				<line class="st4" x1="139.4" y1="29.4" x2="138.4" y2="29.5"/>
				<line class="st4" x1="138.7" y1="30.6" x2="138.7" y2="30.6"/>
			</g>
			<g class="st6">
				<line class="st3" x1="157.7" y1="9.4" x2="133.9" y2="11.5"/>
				<line class="st3" x1="155.2" y1="10.7" x2="134.2" y2="12.6"/>
				<line class="st3" x1="152.6" y1="12.1" x2="134.5" y2="13.7"/>
				<line class="st3" x1="150.1" y1="13.4" x2="134.8" y2="14.8"/>
				<line class="st3" x1="147.5" y1="14.8" x2="135.2" y2="16"/>
			</g>
			<g class="st2">
				<line class="st4" x1="159.2" y1="15" x2="135.3" y2="17.1"/>
				<line class="st4" x1="156.6" y1="16.4" x2="135.6" y2="18.2"/>
				<line class="st4" x1="154.1" y1="17.7" x2="136" y2="19.4"/>
				<line class="st4" x1="151.5" y1="19.1" x2="136.3" y2="20.5"/>
				<line class="st4" x1="149" y1="20.4" x2="136.6" y2="21.6"/>
			</g>
			<g class="st2">
				<line class="st3" x1="-8.2" y1="21.8" x2="3.3" y2="31.3"/>
				<line class="st3" x1="-7" y1="21.3" x2="3.9" y2="30.3"/>
				<line class="st3" x1="-5.8" y1="20.8" x2="4.5" y2="29.3"/>
				<line class="st3" x1="-4.5" y1="20.3" x2="5.1" y2="28.4"/>
				<line class="st3" x1="-3.3" y1="19.8" x2="5.7" y2="27.4"/>
				<line class="st3" x1="-2.1" y1="19.4" x2="6.3" y2="26.4"/>
				<line class="st3" x1="-0.9" y1="18.9" x2="6.9" y2="25.4"/>
				<line class="st3" x1="0.3" y1="18.4" x2="7.5" y2="24.4"/>
				<line class="st3" x1="1.5" y1="17.9" x2="8.1" y2="23.4"/>
				<line class="st3" x1="2.7" y1="17.4" x2="8.7" y2="22.4"/>
				<line class="st3" x1="3.9" y1="16.9" x2="9.4" y2="21.4"/>
				<line class="st3" x1="5.1" y1="16.4" x2="10" y2="20.4"/>
				<line class="st3" x1="6.4" y1="15.9" x2="10.6" y2="19.5"/>
				<line class="st3" x1="7.6" y1="15.5" x2="11.2" y2="18.5"/>
				<line class="st3" x1="8.8" y1="15" x2="11.8" y2="17.5"/>
				<line class="st3" x1="10" y1="14.5" x2="12.4" y2="16.5"/>
				<line class="st3" x1="11.2" y1="14" x2="13" y2="15.5"/>
				<line class="st3" x1="12.4" y1="13.5" x2="13.6" y2="14.5"/>
				<line class="st3" x1="13.6" y1="13" x2="14.2" y2="13.5"/>
				<line class="st3" x1="14.8" y1="12.5" x2="14.8" y2="12.5"/>
			</g>
			<g class="st2">
				<line class="st4" x1="-6.3" y1="23.4" x2="3.3" y2="31.3"/>
				<line class="st4" x1="-5" y1="23" x2="3.9" y2="30.3"/>
				<line class="st4" x1="-3.6" y1="22.6" x2="4.5" y2="29.3"/>
				<line class="st4" x1="-2.3" y1="22.3" x2="5.1" y2="28.4"/>
				<line class="st4" x1="-0.9" y1="21.9" x2="5.7" y2="27.4"/>
				<line class="st4" x1="0.4" y1="21.5" x2="6.3" y2="26.4"/>
				<line class="st4" x1="1.8" y1="21.1" x2="6.9" y2="25.4"/>
				<line class="st4" x1="3.1" y1="20.7" x2="7.5" y2="24.4"/>
				<line class="st4" x1="4.4" y1="20.4" x2="8.1" y2="23.4"/>
				<line class="st4" x1="5.8" y1="20" x2="8.7" y2="22.4"/>
				<line class="st4" x1="7.1" y1="19.6" x2="9.4" y2="21.4"/>
				<line class="st4" x1="8.5" y1="19.2" x2="10" y2="20.4"/>
				<line class="st4" x1="9.8" y1="18.8" x2="10.6" y2="19.5"/>
				<line class="st4" x1="11.2" y1="18.5" x2="11.2" y2="18.5"/>
			</g>
			<g class="st2">
				<line class="st5" x1="5.1" y1="29.8" x2="12.7" y2="36.1"/>
				<line class="st5" x1="5.6" y1="28.9" x2="12.6" y2="34.7"/>
				<line class="st5" x1="6.2" y1="28" x2="12.6" y2="33.3"/>
				<line class="st5" x1="6.8" y1="27.2" x2="12.6" y2="32"/>
				<line class="st5" x1="7.3" y1="26.3" x2="12.6" y2="30.6"/>
				<line class="st5" x1="7.9" y1="25.4" x2="12.6" y2="29.2"/>
				<line class="st5" x1="8.4" y1="24.5" x2="12.6" y2="27.9"/>
				<line class="st5" x1="9" y1="23.6" x2="12.6" y2="26.5"/>
				<line class="st5" x1="9.5" y1="22.7" x2="12.6" y2="25.1"/>
				<line class="st5" x1="10.1" y1="21.8" x2="12.6" y2="23.8"/>
				<line class="st5" x1="10.6" y1="20.9" x2="12.5" y2="22.4"/>
				<line class="st5" x1="11.2" y1="20" x2="12.5" y2="21.1"/>
				<line class="st5" x1="11.7" y1="19.1" x2="12.5" y2="19.7"/>
				<line class="st5" x1="12.3" y1="18.2" x2="12.5" y2="18.3"/>
			</g>
			<g class="st2">
				<line class="st3" x1="8.5" y1="24.5" x2="16" y2="30.7"/>
				<line class="st3" x1="9" y1="23.6" x2="16" y2="29.3"/>
				<line class="st3" x1="9.6" y1="22.7" x2="16" y2="28"/>
				<line class="st3" x1="10.1" y1="21.8" x2="16" y2="26.6"/>
				<line class="st3" x1="10.7" y1="20.9" x2="16" y2="25.2"/>
				<line class="st3" x1="11.3" y1="20" x2="16" y2="23.9"/>
				<line class="st3" x1="11.8" y1="19.1" x2="16" y2="22.5"/>
				<line class="st3" x1="12.4" y1="18.2" x2="16" y2="21.1"/>
				<line class="st3" x1="12.9" y1="17.3" x2="16" y2="19.8"/>
				<line class="st3" x1="13.5" y1="16.4" x2="15.9" y2="18.4"/>
				<line class="st3" x1="14" y1="15.5" x2="15.9" y2="17.1"/>
				<line class="st3" x1="14.6" y1="14.6" x2="15.9" y2="15.7"/>
				<line class="st3" x1="15.1" y1="13.7" x2="15.9" y2="14.3"/>
				<line class="st3" x1="15.7" y1="12.8" x2="15.9" y2="13"/>
			</g>
			<g class="st6">
				<line class="st4" x1="-9.3" y1="28.4" x2="0.3" y2="36.3"/>
				<line class="st4" x1="-7.9" y1="28" x2="0.9" y2="35.3"/>
				<line class="st4" x1="-6.6" y1="27.7" x2="1.5" y2="34.4"/>
				<line class="st4" x1="-5.2" y1="27.3" x2="2.1" y2="33.4"/>
				<line class="st4" x1="-3.9" y1="26.9" x2="2.7" y2="32.4"/>
				<line class="st4" x1="-2.6" y1="26.5" x2="3.4" y2="31.4"/>
				<line class="st4" x1="-1.2" y1="26.1" x2="4" y2="30.4"/>
				<line class="st4" x1="0.1" y1="25.8" x2="4.6" y2="29.4"/>
				<line class="st4" x1="1.5" y1="25.4" x2="5.2" y2="28.4"/>
				<line class="st4" x1="2.8" y1="25" x2="5.8" y2="27.4"/>
				<line class="st4" x1="4.2" y1="24.6" x2="6.4" y2="26.4"/>
				<line class="st4" x1="5.5" y1="24.2" x2="7" y2="25.5"/>
				<line class="st4" x1="6.9" y1="23.9" x2="7.6" y2="24.5"/>
				<line class="st4" x1="8.2" y1="23.5" x2="8.2" y2="23.5"/>
			</g>
			<g class="st6">
				<line class="st3" x1="-12" y1="27.6" x2="-0.2" y2="37.4"/>
				<line class="st3" x1="-9.3" y1="28.4" x2="0.3" y2="36.3"/>
			</g>
			<g class="st2">
				<line class="st4" x1="-17.3" y1="20" x2="1" y2="35.4"/>
				<line class="st4" x1="-14.6" y1="20.9" x2="1.6" y2="34.4"/>
				<line class="st4" x1="-11.8" y1="21.7" x2="2.1" y2="33.4"/>
				<line class="st4" x1="-9.1" y1="22.6" x2="2.7" y2="32.3"/>
				<line class="st4" x1="-6.3" y1="23.4" x2="3.3" y2="31.3"/>
			</g>
		</g>
	</g>
	<rect x="105.2" y="43.9" class="st0" width="18.8" height="28.9"/>
	<rect x="34.5" y="39.8" class="st0" width="18.8" height="32.9"/>
	<path class="st7" d="M78.9,160.9c-31.5,0-41.4-2.7-48.8-5.6c0,16.2-4.6,32.1-4.7,62.6c7.3,2.9,14.9,5.6,46.4,5.6
		c2.9,0,4.1-7.1,7.2-10.1c3.1,3.1,4.3,10.1,7.2,10.1c31.4,0,39-2.7,46.3-5.6c0-30.4-4.7-46.3-4.7-62.6
		C120.6,158.1,110.4,160.9,78.9,160.9z"/>
	<path class="st0" d="M157.8,78.2c-3.2-2.8-17-10.1-17.9-7.8c-7.8,29.6-1.7,62.2-6.2,70.9c-3.9,10.8,0,13.3,0,13.3
		c5.1,2.3,18.2,22.9,22.5,20c1-0.9,1.6-2.2,1.7-3.5c0.5-7.3-9.7-20.2-9.2-27.1C151.4,89,159.4,80,157.8,78.2z"/>
	<g>
		<defs>
			<path id="SVGID_00000111888686521356577190000009036460608929286827_" d="M157.8,78.2c-3.2-2.8-17-10.1-17.9-7.8
				c-7.8,29.6-1.7,62.2-6.2,70.9c-3.9,10.8,0,13.3,0,13.3c5.1,2.3,18.2,22.9,22.5,20c1-0.9,1.6-2.2,1.7-3.5
				c0.5-7.3-9.7-20.2-9.2-27.1C151.4,89,159.4,80,157.8,78.2z"/>
		</defs>
		<clipPath id="SVGID_00000137102185115034156330000017227614991748022964_">
			<use xlink:href="#SVGID_00000111888686521356577190000009036460608929286827_"  style="overflow:visible;"/>
		</clipPath>
		<g style="clip-path:url(#SVGID_00000137102185115034156330000017227614991748022964_);">
			<g class="st2">
				<line class="st3" x1="165.8" y1="94.3" x2="154.3" y2="84.8"/>
				<line class="st3" x1="164.5" y1="94.8" x2="153.7" y2="85.8"/>
				<line class="st3" x1="163.3" y1="95.3" x2="153.1" y2="86.7"/>
				<line class="st3" x1="162.1" y1="95.8" x2="152.5" y2="87.7"/>
				<line class="st3" x1="160.9" y1="96.2" x2="151.9" y2="88.7"/>
				<line class="st3" x1="159.7" y1="96.7" x2="151.3" y2="89.7"/>
				<line class="st3" x1="158.5" y1="97.2" x2="150.7" y2="90.7"/>
				<line class="st3" x1="157.3" y1="97.7" x2="150" y2="91.7"/>
				<line class="st3" x1="156.1" y1="98.2" x2="149.4" y2="92.7"/>
				<line class="st3" x1="154.8" y1="98.7" x2="148.8" y2="93.7"/>
				<line class="st3" x1="153.6" y1="99.2" x2="148.2" y2="94.7"/>
				<line class="st3" x1="152.4" y1="99.7" x2="147.6" y2="95.6"/>
				<line class="st3" x1="151.2" y1="100.1" x2="147" y2="96.6"/>
				<line class="st3" x1="150" y1="100.6" x2="146.4" y2="97.6"/>
				<line class="st3" x1="148.8" y1="101.1" x2="145.8" y2="98.6"/>
				<line class="st3" x1="147.6" y1="101.6" x2="145.2" y2="99.6"/>
				<line class="st3" x1="146.4" y1="102.1" x2="144.6" y2="100.6"/>
				<line class="st3" x1="145.2" y1="102.6" x2="143.9" y2="101.6"/>
				<line class="st3" x1="143.9" y1="103.1" x2="143.3" y2="102.6"/>
				<line class="st3" x1="142.7" y1="103.6" x2="142.7" y2="103.6"/>
			</g>
			<g class="st2">
				<line class="st4" x1="163.9" y1="92.7" x2="154.3" y2="84.8"/>
				<line class="st4" x1="162.5" y1="93.1" x2="153.7" y2="85.8"/>
				<line class="st4" x1="161.2" y1="93.4" x2="153.1" y2="86.8"/>
				<line class="st4" x1="159.9" y1="93.8" x2="152.5" y2="87.7"/>
				<line class="st4" x1="158.5" y1="94.2" x2="151.9" y2="88.7"/>
				<line class="st4" x1="157.2" y1="94.6" x2="151.3" y2="89.7"/>
				<line class="st4" x1="155.8" y1="95" x2="150.6" y2="90.7"/>
				<line class="st4" x1="154.5" y1="95.3" x2="150" y2="91.7"/>
				<line class="st4" x1="153.1" y1="95.7" x2="149.4" y2="92.7"/>
				<line class="st4" x1="151.8" y1="96.1" x2="148.8" y2="93.7"/>
				<line class="st4" x1="150.4" y1="96.5" x2="148.2" y2="94.7"/>
				<line class="st4" x1="149.1" y1="96.9" x2="147.6" y2="95.6"/>
				<line class="st4" x1="147.7" y1="97.2" x2="147" y2="96.6"/>
				<line class="st4" x1="146.4" y1="97.6" x2="146.4" y2="97.6"/>
			</g>
			<g class="st2">
				<line class="st5" x1="152.5" y1="86.2" x2="144.9" y2="80"/>
				<line class="st5" x1="151.9" y1="87.1" x2="144.9" y2="81.4"/>
				<line class="st5" x1="151.4" y1="88" x2="144.9" y2="82.8"/>
				<line class="st5" x1="150.8" y1="88.9" x2="145" y2="84.1"/>
				<line class="st5" x1="150.3" y1="89.8" x2="145" y2="85.5"/>
				<line class="st5" x1="149.7" y1="90.7" x2="145" y2="86.9"/>
				<line class="st5" x1="149.2" y1="91.6" x2="145" y2="88.2"/>
				<line class="st5" x1="148.6" y1="92.5" x2="145" y2="89.6"/>
				<line class="st5" x1="148" y1="93.4" x2="145" y2="90.9"/>
				<line class="st5" x1="147.5" y1="94.3" x2="145" y2="92.3"/>
				<line class="st5" x1="146.9" y1="95.2" x2="145" y2="93.7"/>
				<line class="st5" x1="146.4" y1="96.1" x2="145" y2="95"/>
				<line class="st5" x1="145.8" y1="97" x2="145" y2="96.4"/>
				<line class="st5" x1="145.3" y1="97.9" x2="145.1" y2="97.8"/>
			</g>
			<g class="st2">
				<line class="st3" x1="149.1" y1="91.6" x2="141.5" y2="85.4"/>
				<line class="st3" x1="148.5" y1="92.5" x2="141.5" y2="86.8"/>
				<line class="st3" x1="148" y1="93.4" x2="141.5" y2="88.1"/>
				<line class="st3" x1="147.4" y1="94.3" x2="141.6" y2="89.5"/>
				<line class="st3" x1="146.9" y1="95.2" x2="141.6" y2="90.9"/>
				<line class="st3" x1="146.3" y1="96.1" x2="141.6" y2="92.2"/>
				<line class="st3" x1="145.8" y1="97" x2="141.6" y2="93.6"/>
				<line class="st3" x1="145.2" y1="97.9" x2="141.6" y2="94.9"/>
				<line class="st3" x1="144.7" y1="98.8" x2="141.6" y2="96.3"/>
				<line class="st3" x1="144.1" y1="99.7" x2="141.6" y2="97.7"/>
				<line class="st3" x1="143.5" y1="100.6" x2="141.6" y2="99"/>
				<line class="st3" x1="143" y1="101.5" x2="141.6" y2="100.4"/>
				<line class="st3" x1="142.4" y1="102.4" x2="141.7" y2="101.8"/>
				<line class="st3" x1="141.9" y1="103.3" x2="141.7" y2="103.1"/>
			</g>
			<g class="st6">
				<line class="st4" x1="166.9" y1="87.7" x2="157.2" y2="79.8"/>
				<line class="st4" x1="165.5" y1="88" x2="156.6" y2="80.7"/>
				<line class="st4" x1="164.2" y1="88.4" x2="156" y2="81.7"/>
				<line class="st4" x1="162.8" y1="88.8" x2="155.4" y2="82.7"/>
				<line class="st4" x1="161.5" y1="89.2" x2="154.8" y2="83.7"/>
				<line class="st4" x1="160.1" y1="89.6" x2="154.2" y2="84.7"/>
				<line class="st4" x1="158.8" y1="89.9" x2="153.6" y2="85.7"/>
				<line class="st4" x1="157.4" y1="90.3" x2="153" y2="86.7"/>
				<line class="st4" x1="156.1" y1="90.7" x2="152.4" y2="87.7"/>
				<line class="st4" x1="154.7" y1="91.1" x2="151.8" y2="88.7"/>
				<line class="st4" x1="153.4" y1="91.5" x2="151.2" y2="89.6"/>
				<line class="st4" x1="152.1" y1="91.8" x2="150.6" y2="90.6"/>
				<line class="st4" x1="150.7" y1="92.2" x2="150" y2="91.6"/>
				<line class="st4" x1="149.4" y1="92.6" x2="149.4" y2="92.6"/>
			</g>
			<g class="st6">
				<line class="st3" x1="172.4" y1="89.4" x2="158.4" y2="77.7"/>
				<line class="st3" x1="169.6" y1="88.5" x2="157.8" y2="78.7"/>
				<line class="st3" x1="166.9" y1="87.7" x2="157.2" y2="79.8"/>
			</g>
			<g class="st2">
				<line class="st4" x1="174.9" y1="96.1" x2="156.6" y2="80.7"/>
				<line class="st4" x1="172.2" y1="95.2" x2="156" y2="81.7"/>
				<line class="st4" x1="169.4" y1="94.4" x2="155.4" y2="82.7"/>
				<line class="st4" x1="166.6" y1="93.5" x2="154.9" y2="83.7"/>
				<line class="st4" x1="163.9" y1="92.7" x2="154.3" y2="84.8"/>
			</g>
			<g class="st2">
				<line class="st3" x1="127.6" y1="101.2" x2="127.6" y2="101.2"/>
			</g>
			<g class="st2">
				<line class="st4" x1="129.2" y1="108" x2="129.2" y2="108"/>
			</g>
			<g class="st2">
				<line class="st5" x1="133" y1="120.3" x2="142.7" y2="119.4"/>
				<line class="st5" x1="132.7" y1="119.3" x2="141.7" y2="118.4"/>
				<line class="st5" x1="132.5" y1="118.3" x2="140.8" y2="117.5"/>
				<line class="st5" x1="132.2" y1="117.3" x2="139.8" y2="116.5"/>
				<line class="st5" x1="132" y1="116.2" x2="138.8" y2="115.6"/>
				<line class="st5" x1="131.7" y1="115.2" x2="137.8" y2="114.6"/>
				<line class="st5" x1="131.5" y1="114.2" x2="136.9" y2="113.7"/>
				<line class="st5" x1="131.3" y1="113.2" x2="135.9" y2="112.7"/>
				<line class="st5" x1="131" y1="112.1" x2="134.9" y2="111.7"/>
				<line class="st5" x1="130.8" y1="111.1" x2="133.9" y2="110.8"/>
				<line class="st5" x1="130.5" y1="110.1" x2="133" y2="109.8"/>
				<line class="st5" x1="130.3" y1="109.1" x2="132" y2="108.9"/>
				<line class="st5" x1="130.1" y1="108" x2="131" y2="107.9"/>
				<line class="st5" x1="129.8" y1="107" x2="130.1" y2="107"/>
			</g>
			<g class="st2">
				<line class="st3" x1="131.6" y1="114.1" x2="141.3" y2="113.2"/>
				<line class="st3" x1="131.3" y1="113.1" x2="140.3" y2="112.2"/>
				<line class="st3" x1="131.1" y1="112.1" x2="139.4" y2="111.3"/>
				<line class="st3" x1="130.8" y1="111.1" x2="138.4" y2="110.3"/>
				<line class="st3" x1="130.6" y1="110" x2="137.4" y2="109.4"/>
				<line class="st3" x1="130.3" y1="109" x2="136.4" y2="108.4"/>
				<line class="st3" x1="130.1" y1="108" x2="135.5" y2="107.5"/>
				<line class="st3" x1="129.9" y1="107" x2="134.5" y2="106.5"/>
				<line class="st3" x1="129.6" y1="105.9" x2="133.5" y2="105.5"/>
				<line class="st3" x1="129.4" y1="104.9" x2="132.5" y2="104.6"/>
				<line class="st3" x1="129.1" y1="103.9" x2="131.6" y2="103.6"/>
				<line class="st3" x1="128.9" y1="102.9" x2="130.6" y2="102.7"/>
				<line class="st3" x1="128.7" y1="101.8" x2="129.6" y2="101.7"/>
				<line class="st3" x1="128.4" y1="100.8" x2="128.7" y2="100.8"/>
			</g>
			<g class="st6">
				<line class="st4" x1="130.7" y1="113.6" x2="130.7" y2="113.6"/>
			</g>
			<g class="st2">
				<line class="st3" x1="156.8" y1="146.5" x2="156.8" y2="146.5"/>
			</g>
			<g class="st2">
				<line class="st4" x1="155.2" y1="139.7" x2="155.2" y2="139.7"/>
			</g>
			<g class="st2">
				<line class="st5" x1="151.4" y1="127.4" x2="141.7" y2="128.3"/>
				<line class="st5" x1="151.7" y1="128.4" x2="142.7" y2="129.3"/>
				<line class="st5" x1="151.9" y1="129.4" x2="143.6" y2="130.2"/>
				<line class="st5" x1="152.1" y1="130.4" x2="144.6" y2="131.2"/>
				<line class="st5" x1="152.4" y1="131.5" x2="145.6" y2="132.1"/>
				<line class="st5" x1="152.6" y1="132.5" x2="146.5" y2="133.1"/>
				<line class="st5" x1="152.9" y1="133.5" x2="147.5" y2="134"/>
				<line class="st5" x1="153.1" y1="134.5" x2="148.5" y2="135"/>
				<line class="st5" x1="153.4" y1="135.6" x2="149.5" y2="136"/>
				<line class="st5" x1="153.6" y1="136.6" x2="150.4" y2="136.9"/>
				<line class="st5" x1="153.8" y1="137.6" x2="151.4" y2="137.9"/>
				<line class="st5" x1="154.1" y1="138.6" x2="152.4" y2="138.8"/>
				<line class="st5" x1="154.3" y1="139.7" x2="153.3" y2="139.8"/>
				<line class="st5" x1="154.6" y1="140.7" x2="154.3" y2="140.7"/>
			</g>
			<g class="st2">
				<line class="st3" x1="152.8" y1="133.5" x2="143.1" y2="134.5"/>
				<line class="st3" x1="153.1" y1="134.6" x2="144.1" y2="135.5"/>
				<line class="st3" x1="153.3" y1="135.6" x2="145" y2="136.4"/>
				<line class="st3" x1="153.5" y1="136.6" x2="146" y2="137.4"/>
				<line class="st3" x1="153.8" y1="137.6" x2="147" y2="138.3"/>
				<line class="st3" x1="154" y1="138.7" x2="147.9" y2="139.3"/>
				<line class="st3" x1="154.3" y1="139.7" x2="148.9" y2="140.2"/>
				<line class="st3" x1="154.5" y1="140.7" x2="149.9" y2="141.2"/>
				<line class="st3" x1="154.8" y1="141.8" x2="150.9" y2="142.1"/>
				<line class="st3" x1="155" y1="142.8" x2="151.8" y2="143.1"/>
				<line class="st3" x1="155.2" y1="143.8" x2="152.8" y2="144.1"/>
				<line class="st3" x1="155.5" y1="144.8" x2="153.8" y2="145"/>
				<line class="st3" x1="155.7" y1="145.9" x2="154.7" y2="146"/>
				<line class="st3" x1="156" y1="146.9" x2="155.7" y2="146.9"/>
			</g>
			<g class="st6">
				<line class="st4" x1="153.7" y1="134" x2="153.7" y2="134"/>
			</g>
		</g>
	</g>
	<path class="st0" d="M140,69.9c-0.7,1.7-2.8,10.5-3.3,19c8.8,2.2,14,4.2,17.3,5.7c1.1-5.2,2.9-10.1,4-16.1
		C157.5,77.1,146.1,70,140,69.9z"/>
	<path class="st7" d="M138.2,77c0,0-0.1,0.8-0.5,2.9c8.5,1.6,17.9,7,18.1,7.8c0.5-1.7,0.8-2.7,0.8-2.7C156,83.5,141.8,76.8,138.2,77
		z"/>
	<path class="st7" d="M139.5,71.9c-0.8,2-0.6,2.4-0.6,2.4c5.6,0.9,14.7,5.3,18.3,8.3l0.5-2.1C157.1,78.9,145.6,71.9,139.5,71.9z"/>
	<path class="st7" d="M137.4,82.6c-0.2,1-0.3,2-0.4,2.9c3.9,0.4,14.2,5,17.4,7l0.7-2.3C154.6,88.7,140.5,82.8,137.4,82.6z"/>
	<path class="st7" d="M124.9,57.8c-1.1,3.5-1.6,22.6-1.4,51.3c0.1,23.6,1.5,44.9,2.1,46.4c0.2,0,0.2,0.1,0.6-0.1c0,0,2-0.8,2-0.8
		c-1.2-5.7-1.6-24.5-1.9-48.1c-0.2-16.9-0.5-42-0.2-49.4c-0.5,0,0.1,0-0.1,0C125.4,57,125,57.3,124.9,57.8z"/>
	<path class="st7" d="M33.2,57.8c1.1,3.5,1.6,22.6,1.4,51.3c-0.1,23.6-1.5,44.9-2.1,46.4c-0.2,0-0.2,0.1-0.6-0.1c0,0-2-0.8-2-0.8
		c1.2-5.7,1.6-24.5,1.9-48.1c0.2-16.9,0.5-42,0.2-49.4c0.5,0-0.1,0,0.1,0C32.6,57,33,57.3,33.2,57.8z"/>
	<path class="st7" d="M60.6,0.5c-14.2,0-24.6,3-33.2,8.1c0,0.4,0,1.1,0,1.3c8.8-5.3,19.4-8.3,33.5-8.4C60.7,1.2,60.6,0.8,60.6,0.5z"
		/>
	<path class="st7" d="M27.3,13C37,7,47.9,4.4,62.8,4.3c-0.4-0.4-0.7-1-1-1.5c-14.8,0-25.2,2.8-34.5,8.4C27.3,11.9,27.3,12.7,27.3,13
		z"/>
	<path class="st7" d="M97.2,0.5c14.2,0,24.6,3,33.2,8.1c0,0.4,0,1.1,0,1.3c-8.8-5.3-19.4-8.3-33.5-8.4C97.1,1.2,97.2,0.8,97.2,0.5z"
		/>
	<path class="st7" d="M130.5,13C120.9,7,109.9,4.4,95,4.3c0.4-0.4,0.7-1,1-1.5c14.8,0,25.2,2.8,34.5,8.4
		C130.5,11.9,130.5,12.7,130.5,13z"/>
	
		<linearGradient id="SVGID_00000035521367492909716300000014716692990332102062_" gradientUnits="userSpaceOnUse" x1="78.8901" y1="208.5504" x2="78.8901" y2="224.3649" gradientTransform="matrix(1 0 0 -1 0 224.3649)">
		<stop  offset="0" style="stop-color:#FFFFFF;stop-opacity:0"/>
		<stop  offset="0.1463" style="stop-color:#828282;stop-opacity:0.4908"/>
		<stop  offset="1" style="stop-color:#000000"/>
	</linearGradient>
	<path style="opacity:0.25;fill:url(#SVGID_00000035521367492909716300000014716692990332102062_);enable-background:new    ;" d="
		M78.9,15.8c-8.5,0-18.5-15.2-18.5-15.2C60.6,0.2,61,0,61.4,0v0l0.1,0h0c3.1,0.1,6.2,0.3,9.2,0.6c2.8,0.3,5.5,0.6,8.1,0.6
		c2.6,0,5.2-0.3,7.9-0.5l0.2,0C90.1,0.3,93.2,0,96.3,0l0,0h0c0.5,0,0.9,0.2,1.2,0.6C97.4,0.6,88.3,15.8,78.9,15.8"/>
	<path class="st10" d="M78.9,14.1c-8.5,0-18.5-13.5-18.5-13.5C60.6,0.2,61,0,61.4,0v0l0.1,0h0c3.1,0.1,6.2,0.3,9.2,0.6
		c2.8,0.3,5.5,0.6,8.1,0.6c2.6,0,5.2-0.3,7.9-0.5l0.2,0C90.1,0.3,93.2,0,96.3,0l0,0h0c0.5,0,0.9,0.2,1.2,0.6
		C97.4,0.6,88.3,14.1,78.9,14.1"/>
	<path class="st7" d="M74.2,12.9c1.3,1.2,2.6,2.9,3.6,3.7c0.6,0.5,1.6,0.5,2.2,0c1-0.8,2.3-2.5,3.6-3.7H74.2z"/>
	<path class="st11" d="M60.9,0.2c-0.1,0-0.3,0.1-0.3,0.3C60.7,0.3,60.8,0.3,60.9,0.2z"/>
	<path class="st11" d="M97.1,0.2c0,0,0.1,0,0.1,0.1C97.2,0.2,97.1,0.2,97.1,0.2z"/>
	<path class="st12" d="M78.5,16.9c-0.9-0.8-2.2-2-3.8-3.5c-3.8-3.5-9-8.2-13.9-13.3l0,0c-0.1,0.1-0.2,0.2-0.3,0.3
		c-0.2,0.3-0.3,0.7-0.3,1.1c7.9,8.3,13.7,14.3,14.9,15.5H78.5z"/>
	<path class="st12" d="M97.6,1.7C97.6,1.6,97.6,1.6,97.6,1.7C97.7,1.6,97.7,1.6,97.6,1.7c0.1-0.6,0-1-0.3-1.4c0,0-0.1-0.1-0.1-0.1
		c0,0,0,0-0.1,0c0,0-0.1,0-0.1,0c-4.9,5.1-10.4,10.1-14,13.4c-1.7,1.5-3,2.7-3.8,3.5h3.5C83.8,15.9,90.3,9.3,97.6,1.7z"/>
	<path class="st7" d="M81,16.9c0.5-0.5,1.1-1.2,1.9-2h-8.1c0.8,0.8,1.4,1.4,1.9,2H81z"/>
	<path class="st7" d="M74,16.9h2.7c-1.6-1.7-5.9-6.1-8.3-8.5c-2.4-2.4-5-5.2-7.8-8c-0.2,0-0.3,0.1-0.4,0.2
		c5.1,5.2,9.2,10.6,11.7,13.8C72,14.4,73.9,16.8,74,16.9z"/>
	<path class="st7" d="M83.8,16.9h-2.7c1.6-1.7,5.9-6.1,8.3-8.5c2.4-2.4,5-5.2,7.8-8c0.2,0,0.3,0.1,0.4,0.2
		c-5.1,5.2-9.2,10.6-11.7,13.8C85.8,14.4,83.9,16.8,83.8,16.9z"/>
	<path class="st7" d="M157.8,34.1c0,0-0.2-0.2-0.4-0.4c0,0,0,0,0,0l-0.4-0.4c-0.1-0.1-1.2-1.6-1.2-1.6c0,1.9-0.3,3.7-0.8,5.5
		c0.4-1.8,0.6-3.6,0.6-5.5l0,0c0-0.3-0.8-0.9-1.3-1.2c-0.1,8.6-5.5,16.2-10.1,21.1c-4.2,4.5-8.7,7.8-10.4,8.7
		c0.5,0.2,0.9,0.5,1.3,0.9c0.6-0.3,1.1-0.6,1.6-0.9c-0.5,0.4-0.9,0.7-1.4,0.9c0.2,0.2,1.4,1.8,1.7,2c0,0,0.1,0,0.1,0.1
		c0.1,0.1,0.1,0.1,0.2,0.2c0.1,0.1,0.2,0.2,0.3,0.4l0.1-0.1l0,0.1c1.1-0.6,5.5-3.6,9.9-8.1c0.2-0.2,0.4-0.4,0.6-0.6
		c4.2-4.7,9.2-11.9,9.6-20.1C157.8,34.6,157.8,34.4,157.8,34.1z"/>
	<path class="st7" d="M13.5,51.6c-4.6-4.9-10-12.5-10.1-21.1c0,0-0.1,0-0.1,0.1c-0.4,0.4-0.8,0.7-1.2,1.1c0,0,0,0,0,0l0,0
		c0,0-1.1,1.5-1.2,1.6l-0.4,0.4c0,0,0,0,0,0c-0.2,0.2-0.4,0.4-0.4,0.4c0,0.2,0,0.5-0.1,0.7C0.4,43,5.4,50.2,9.6,54.9
		c0.2,0.2,0.4,0.4,0.6,0.6c4.4,4.5,8.9,7.6,9.9,8.1l0-0.1l0.1,0.1c0.1-0.1,0.2-0.2,0.3-0.4c0-0.1,0.1-0.1,0.2-0.2c0,0,0.1,0,0.1-0.1
		c0.2-0.2,1.5-1.8,1.7-2c0.4-0.3,0.8-0.6,1.3-0.9C22.2,59.4,17.7,56.1,13.5,51.6z"/>
	<path class="st0" d="M31.5,155.7c-0.5-0.1-0.9-0.2-1.3-0.5c0.5,9-6.3,54.2-4.7,62.6c0,0.3,0.6,0.6,1.3,0.6
		C25.3,209.2,32.2,164.4,31.5,155.7z"/>
	<path class="st0" d="M34.1,156.6c-0.5-0.1-1.1-0.2-1.5-0.5c0.8,10.2-6.1,58.1-4.2,62.6c0,0.3,0.7,0.6,1.5,0.6
		C28.3,211.8,34.8,165.3,34.1,156.6z"/>
	<path class="st0" d="M126.3,155.7c0.5-0.1,0.9-0.2,1.3-0.5c-0.5,9,6.3,54.2,4.7,62.6c0,0.3-0.6,0.6-1.3,0.6
		C132.5,209.2,125.6,164.4,126.3,155.7z"/>
	<path class="st0" d="M123.8,156.6c0.5-0.1,1.1-0.2,1.5-0.5c-0.8,10.2,6.1,58.1,4.2,62.6c0,0.3-0.7,0.6-1.5,0.6
		C129.5,211.8,123,165.3,123.8,156.6z"/>
</g>
</svg>
