<?xml version="1.0" encoding="utf-8"?>
<!-- Generator: Adobe Illustrator 22.0.1, SVG Export Plug-In . SVG Version: 6.00 Build 0)  -->
<svg version="1.1" id="Layer_1" xmlns="http://www.w3.org/2000/svg" xmlns:xlink="http://www.w3.org/1999/xlink" x="0px" y="0px"
	 viewBox="0 0 558.6 558.6" style="enable-background:new 0 0 558.6 558.6;" xml:space="preserve">
<style type="text/css">
	.st0{fill:#FFD900;}
	.st1{fill:none;}
</style>
<title>icon-weather-sunny</title>
<g id="Layer_2_1_">
	<g id="Layer_1-2">
		<circle class="st0" cx="279.4" cy="279.4" r="116.2"/>
		<path class="st0" d="M279.4,138.1c-14.7,0-26.7-11.9-26.7-26.7c0,0,0,0,0,0V54.7c0-14.7,11.9-26.7,26.7-26.7s26.7,11.9,26.7,26.7
			v56.7C306.1,126.2,294.2,138.1,279.4,138.1z"/>
		<path class="st0" d="M279.4,530.8c-14.7,0-26.7-11.9-26.7-26.7c0,0,0,0,0,0v-56.7c0-14.7,11.9-26.7,26.7-26.7s26.7,11.9,26.7,26.7
			v56.7C306.1,518.9,294.2,530.8,279.4,530.8C279.5,530.8,279.4,530.8,279.4,530.8z"/>
		<path class="st0" d="M420.8,279.4c0-14.7,11.9-26.7,26.7-26.7c0,0,0,0,0,0h56.7c14.7,0,26.7,11.9,26.7,26.7s-11.9,26.7-26.7,26.7
			h-56.7C432.7,306.1,420.8,294.2,420.8,279.4C420.8,279.5,420.8,279.4,420.8,279.4z"/>
		<path class="st0" d="M28,279.4c0-14.7,11.9-26.7,26.7-26.7c0,0,0,0,0,0h56.7c14.7,0,26.7,11.9,26.7,26.7s-11.9,26.7-26.7,26.7
			H54.7C40,306.1,28.1,294.2,28,279.4z"/>
		<rect x="28" y="28" class="st1" width="504.9" height="504.9"/>
		<path class="st0" d="M208.8,157c-12.7,7.4-29.1,3-36.4-9.8L144,98.1c-7.5-12.7-3.3-29,9.4-36.5c12.7-7.5,29-3.3,36.5,9.4
			c0.1,0.2,0.2,0.3,0.3,0.5l28.4,49.1C225.9,133.4,221.5,149.7,208.8,157C208.8,157,208.8,157,208.8,157z"/>
		<path class="st0" d="M405.1,497.1c-12.7,7.4-29.1,3-36.4-9.8l-28.4-49.1c-7.2-12.8-2.7-29.1,10.1-36.3c12.6-7.1,28.7-2.8,36.1,9.7
			l28.4,49.1C422.3,473.5,417.9,489.8,405.1,497.1C405.2,497.1,405.2,497.1,405.1,497.1z"/>
		<path class="st0" d="M401.8,208.8c-7.4-12.7-3-29.1,9.8-36.4l49.1-28.4c12.7-7.5,29-3.3,36.5,9.4c7.5,12.7,3.3,29-9.4,36.5
			c-0.2,0.1-0.3,0.2-0.5,0.3l-49.1,28.4C425.5,225.9,409.2,221.5,401.8,208.8z"/>
		<path class="st0" d="M61.7,405.1c-7.4-12.7-3-29.1,9.8-36.4l49.1-28.4c12.8-7.2,29.1-2.7,36.3,10.1c7.1,12.6,2.8,28.7-9.7,36.1
			l-49.1,28.4C85.4,422.3,69.1,417.9,61.7,405.1C61.7,405.2,61.7,405.2,61.7,405.1z"/>
		<path class="st0" d="M157,208.8c-7.4,12.7-23.7,17.1-36.4,9.8c0,0,0,0,0,0l-49.1-28.4c-12.8-7.2-17.4-23.5-10.1-36.3
			s23.5-17.4,36.3-10.1c0.2,0.1,0.3,0.2,0.5,0.3l49.1,28.4C160,179.7,164.4,196,157,208.8z"/>
		<path class="st0" d="M497.1,405.1c-7.4,12.7-23.7,17.1-36.4,9.8c0,0,0,0,0,0l-49.1-28.4c-12.8-7.4-17.1-23.7-9.8-36.4
			c7.4-12.8,23.7-17.1,36.4-9.8l49.1,28.4C500.1,376.1,504.5,392.4,497.1,405.1C497.2,405.1,497.2,405.1,497.1,405.1z"/>
		<path class="st0" d="M350.1,157c-12.7-7.4-17.1-23.7-9.8-36.4l28.4-49.1c7.2-12.8,23.5-17.4,36.3-10.1s17.4,23.5,10.1,36.3
			c-0.1,0.2-0.2,0.3-0.3,0.5l-28.4,49.1C379.2,160,362.9,164.4,350.1,157z"/>
		<path class="st0" d="M153.7,497.1c-12.7-7.4-17.1-23.7-9.8-36.4c0,0,0,0,0,0l28.4-49.1c7.2-12.8,23.5-17.4,36.3-10.1
			s17.4,23.5,10.1,36.3c-0.1,0.2-0.2,0.3-0.3,0.5l-28.4,49.1C182.8,500.1,166.5,504.5,153.7,497.1
			C153.8,497.2,153.7,497.2,153.7,497.1z"/>
	</g>
</g>
</svg>
