<?xml version="1.0" encoding="utf-8"?>
<!-- Generator: Adobe Illustrator 22.0.1, SVG Export Plug-In . SVG Version: 6.00 Build 0)  -->
<svg version="1.1" id="Layer_1" xmlns="http://www.w3.org/2000/svg" xmlns:xlink="http://www.w3.org/1999/xlink" x="0px" y="0px"
	 viewBox="0 0 690 690" style="enable-background:new 0 0 690 690;" xml:space="preserve">
<style type="text/css">
	.st0{fill:none;}
	.st1{fill:#666666;}
	.st2{fill:#FFD900;}
	.st3{fill:#0093D0;}
</style>
<title>icon-weather-sunrainheavy</title>
<rect class="st0" width="690" height="690"/>
<g id="Layer_2_1_">
	<g id="Layer_1-2">
		<path class="st1" d="M439.2,311.8h-0.8c-20.8-78.6-101.3-125.4-179.9-104.6c-51.7,13.7-91.9,54.3-105,106.2
			C98.8,303.6,46.7,340.1,37,394.7c-5.8,32.6,4.9,66,28.5,89.2l0.3,0.3l0.5,0.5c40,38.5,103.6,37.3,142.1-2.7
			c4.3-4.4,8.1-9.2,11.5-14.4h-79.4c-1.5,0.1-3,0.2-4.5,0.2c-14.3,0-28-5.5-38.3-15.4l0,0l0,0c-21.6-21.6-21.6-56.6,0-78.2
			s56.6-21.6,78.2,0l0,0c8.8,8.7,23.1,8.7,31.8-0.1c8.7-8.8,8.7-22.9,0-31.7c-3.7-3.7-7.8-7.2-12.1-10.3
			c9.7-55.5,62.7-92.7,118.2-83c47.3,8.3,82.4,48.4,84.4,96.4c-0.1,1-0.2,1.9-0.1,2.9c0.2,15.4-2.6,30.7-8.4,44.9
			c-4.7,11.5,0.9,24.6,12.4,29.3s24.6-0.9,29.3-12.4c6-14.8,9.7-30.3,11.1-46.2c0.3-2.3,0.5-4.6,0.6-7c30.6,2.1,53.6,28.6,51.5,59.2
			c-2,29-26.2,51.6-55.3,51.6c-1.5,0-3-0.1-4.5-0.2h-79.4c30.5,46.3,92.9,59.2,139.2,28.6c46.3-30.5,59.2-92.9,28.6-139.2
			C504.6,328.8,473,311.8,439.2,311.8L439.2,311.8z"/>
		<path class="st2" d="M436.6,311.8h0.8c27.8,0,54.3,11.5,73.3,31.8c25-59.1-2.6-127.3-61.6-152.3C410,174.7,365,180.7,331.7,207
			C383,220.6,423,260.6,436.6,311.8z"/>
		<path class="st2" d="M403.2,156.9c-14.7,0-26.7-11.9-26.7-26.7V73.5c0-14.7,12-26.7,26.7-26.6c14.7,0,26.6,11.9,26.6,26.6v56.7
			C429.9,145,417.9,156.9,403.2,156.9z"/>
		<path class="st2" d="M544.5,298.2c0-14.7,11.9-26.7,26.7-26.7h56.7c14.7,0,26.7,11.9,26.7,26.6c0,14.7-11.9,26.7-26.6,26.7
			c0,0,0,0,0,0h-56.7C556.5,324.9,544.5,313,544.5,298.2z"/>
		<path class="st2" d="M332.5,175.8c-12.7,7.4-29.1,3-36.4-9.8l-28.4-49.1c-7.2-12.8-2.7-29.1,10.1-36.3c12.6-7.1,28.7-2.8,36.1,9.7
			l28.4,49.1C349.6,152.2,345.3,168.5,332.5,175.8z"/>
		<path class="st2" d="M525.6,227.6c-7.4-12.7-3-29,9.7-36.4c0,0,0,0,0,0l49.1-28.4c12.8-7.2,29.1-2.7,36.3,10.1
			c7.1,12.6,2.8,28.7-9.7,36.1L562,237.3C549.3,244.7,533,240.3,525.6,227.6C525.6,227.6,525.6,227.6,525.6,227.6z"/>
		<path class="st2" d="M473.9,175.8c-12.7-7.4-17.1-23.7-9.8-36.4c0,0,0,0,0,0l28.4-49.1c7.2-12.8,23.5-17.4,36.3-10.1
			c12.8,7.2,17.4,23.5,10.1,36.3c-0.1,0.2-0.2,0.3-0.3,0.5l-28.4,49.1C502.9,178.8,486.6,183.2,473.9,175.8z"/>
		<path class="st3" d="M323.4,432.6c-1.5,0-3,0.5-4.2,1.3l-55.9,41.4c-0.6,0.4-1.2,0.8-1.9,1.2c-1.2,0.9-2.4,1.8-3.5,2.7l0,0
			c-18.4,15.9-20.5,43.8-4.6,62.2s43.8,20.5,62.2,4.6c9.7-8.4,15.3-20.6,15.3-33.4V440C330.9,435.9,327.6,432.6,323.4,432.6
			C323.5,432.6,323.5,432.6,323.4,432.6z"/>
		<path class="st3" d="M212.7,519c-1.5,0-3,0.5-4.2,1.3l-55.9,41.3c-0.6,0.4-1.2,0.8-1.9,1.2c-1.2,0.9-2.4,1.8-3.5,2.7l0,0
			c-18.5,15.9-20.6,43.7-4.7,62.2c15.9,18.5,43.7,20.6,62.2,4.7c9.8-8.4,15.4-20.6,15.3-33.5v-72.5C220.1,522.3,216.8,519,212.7,519
			z"/>
	</g>
</g>
</svg>
